<?xml version="1.0" standalone="no"?>
<!DOCTYPE svg PUBLIC "-//W3C//DTD SVG 20010904//EN"
 "http://www.w3.org/TR/2001/REC-SVG-20010904/DTD/svg10.dtd">
<svg version="1.0" xmlns="http://www.w3.org/2000/svg"
 width="700.000000pt" height="700.000000pt" viewBox="0 0 700.000000 700.000000"
 preserveAspectRatio="xMidYMid meet">
<metadata>
Created by potrace 1.11, written by Peter Selinger 2001-2013
</metadata>
<g transform="translate(0.000000,700.000000) scale(0.100000,-0.100000)"
fill="#000000" stroke="none">
<path d="M0 3500 l0 -3500 3500 0 3500 0 0 3500 0 3500 -3500 0 -3500 0 0
-3500z m6580 0 l0 -3080 -3080 0 -3080 0 0 3080 0 3080 3080 0 3080 0 0 -3080z"/>
<path d="M1460 3575 l0 -1125 210 0 210 0 2 732 3 731 451 -729 450 -729 232
-3 232 -2 0 1125 0 1125 -215 0 -215 0 -2 -744 -3 -743 -455 743 -455 743
-222 1 -223 0 0 -1125z"/>
<path d="M3730 3575 l0 -1125 230 0 230 0 0 495 0 495 443 -2 442 -3 3 -492 2
-493 225 0 225 0 0 1125 0 1125 -225 0 -225 0 0 -440 0 -440 -445 0 -445 0 0
440 0 440 -230 0 -230 0 0 -1125z"/>
</g>
</svg>
